<svg xmlns="http://www.w3.org/2000/svg" width="1280" height="560" viewBox="0 0 1280 560">
  <defs>
    <style>
      .bg{fill:#fcfcfd}.box{fill:#fff;stroke:#0f766e;stroke-width:2;rx:14}.box2{fill:#ecfeff;stroke:#0891b2;stroke-width:2;rx:14}.box3{fill:#fff7ed;stroke:#f97316;stroke-width:2;rx:14}.txt{font-family:-apple-system,BlinkMacSystemFont,"Segoe UI",Arial,"PingFang SC","Microsoft YaHei",sans-serif;font-size:21px;fill:#111827}.small{font-size:16px;fill:#4b5563}.title{font-size:30px;font-weight:700}.line{stroke:#374151;stroke-width:2.2;fill:none;marker-end:url(#arrow)}</style>
    <marker id="arrow" markerWidth="10" markerHeight="10" refX="8" refY="3" orient="auto" markerUnits="strokeWidth"><path d="M0,0 L0,6 L9,3 z" fill="#374151"/></marker>
  </defs>
  <rect class="bg" width="1280" height="560"/>
  <text class="txt title" x="48" y="58">FaultDiag 诊断流水线：把分散日志变成可行动的根因报告</text>

  <rect class="box" x="64" y="124" width="210" height="96"/><text class="txt" x="118" y="164">日志采集</text><text class="small" x="92" y="194">训练/推理/CANN/OS/NPU</text>
  <rect class="box" x="334" y="124" width="210" height="96"/><text class="txt" x="388" y="164">日志清洗</text><text class="small" x="370" y="194">parse 提取有效事件</text>
  <rect class="box" x="604" y="124" width="210" height="96"/><text class="txt" x="658" y="164">集中转储</text><text class="small" x="628" y="194">多节点结果汇总</text>
  <rect class="box2" x="874" y="124" width="210" height="96"/><text class="txt" x="928" y="164">故障诊断</text><text class="small" x="908" y="194">根因节点 / 故障事件</text>

  <rect class="box3" x="178" y="322" width="245" height="108"/><text class="txt" x="232" y="362">知识图谱解析</text><text class="small" x="216" y="392">CANN / MindIE / 组件日志</text><text class="small" x="216" y="416">匹配错误码与规则链</text>
  <rect class="box3" x="518" y="322" width="245" height="108"/><text class="txt" x="572" y="362">根因节点分析</text><text class="small" x="552" y="392">HCCL 报错、rank、节点</text><text class="small" x="552" y="416">定位故障传播起点</text>
  <rect class="box3" x="858" y="322" width="245" height="108"/><text class="txt" x="912" y="362">诊断报告</text><text class="small" x="892" y="392">故障类型、影响面</text><text class="small" x="892" y="416">处理建议与证据链</text>

  <path class="line" d="M274 172 L334 172"/><path class="line" d="M544 172 L604 172"/><path class="line" d="M814 172 L874 172"/>
  <path class="line" d="M979 220 C979 270 300 270 300 322"/>
  <path class="line" d="M423 376 L518 376"/><path class="line" d="M763 376 L858 376"/>
  <path class="line" d="M1103 376 C1160 376 1160 172 1084 172"/>
</svg>
