<svg xmlns="http://www.w3.org/2000/svg" viewBox="0 0 960 560" font-family="'Segoe UI','PingFang SC','Microsoft YaHei',Arial,sans-serif">
  <title>CL4R1T4S 仓库顶层分类全景</title>
  <desc>展示 CL4R1T4S 的 25 个顶层目录如何按基础模型、搜索助手、工程智能体、生成式应用与通用 Agent 等形态归类，并标出社区输入与研究输出。</desc>
  <rect width="960" height="560" fill="#f8fafc" rx="10"/>
  <text x="480" y="34" text-anchor="middle" font-size="18" font-weight="700" fill="#1e293b">CL4R1T4S 仓库全景</text>
  <text x="480" y="54" text-anchor="middle" font-size="12" fill="#64748b">Repository Map — 25 个顶层目录，覆盖主流 AI 模型与 Agent 产品</text>

  <circle cx="480" cy="300" r="70" fill="#6366f1"/>
  <text x="480" y="295" text-anchor="middle" font-size="15" font-weight="700" fill="#ffffff">CL4R1T4S</text>
  <text x="480" y="315" text-anchor="middle" font-size="11" fill="#e0e7ff">25 顶层目录 / 25k+ Stars</text>

  <g>
    <line x1="423" y1="260" x2="180" y2="130" stroke="#93c5fd" stroke-width="1.5"/>
    <rect x="40" y="95" width="290" height="80" rx="8" fill="#ffffff" stroke="#3b82f6" stroke-width="1.5"/>
    <text x="185" y="120" text-anchor="middle" font-size="13" font-weight="700" fill="#1e40af">① 基础大模型 / 厂商模型</text>
    <text x="185" y="140" text-anchor="middle" font-size="11" fill="#475569">ANTHROPIC · OPENAI · GOOGLE · XAI</text>
    <text x="185" y="158" text-anchor="middle" font-size="11" fill="#475569">META · MISTRAL · MOONSHOT · MINIMAX</text>
  </g>

  <g>
    <line x1="537" y1="260" x2="780" y2="130" stroke="#fca5a5" stroke-width="1.5"/>
    <rect x="630" y="95" width="290" height="80" rx="8" fill="#ffffff" stroke="#ef4444" stroke-width="1.5"/>
    <text x="775" y="120" text-anchor="middle" font-size="13" font-weight="700" fill="#b91c1c">② 搜索 / 浏览 / 助手</text>
    <text x="775" y="140" text-anchor="middle" font-size="11" fill="#475569">PERPLEXITY · BRAVE · DIA · CLUELY</text>
    <text x="775" y="158" text-anchor="middle" font-size="11" fill="#475569">HUME · MULTION</text>
  </g>

  <g>
    <line x1="423" y1="340" x2="180" y2="470" stroke="#86efac" stroke-width="1.5"/>
    <rect x="40" y="440" width="290" height="80" rx="8" fill="#ffffff" stroke="#10b981" stroke-width="1.5"/>
    <text x="185" y="465" text-anchor="middle" font-size="13" font-weight="700" fill="#047857">③ 编码 / 工程智能体</text>
    <text x="185" y="485" text-anchor="middle" font-size="11" fill="#475569">CURSOR · WINDSURF · CLINE · DEVIN</text>
    <text x="185" y="503" text-anchor="middle" font-size="11" fill="#475569">REPLIT · FACTORY · SAMEDEV</text>
  </g>

  <g>
    <line x1="537" y1="340" x2="780" y2="470" stroke="#fcd34d" stroke-width="1.5"/>
    <rect x="630" y="440" width="290" height="80" rx="8" fill="#ffffff" stroke="#f59e0b" stroke-width="1.5"/>
    <text x="775" y="465" text-anchor="middle" font-size="13" font-weight="700" fill="#b45309">④ 生成式应用 / 通用 Agent</text>
    <text x="775" y="485" text-anchor="middle" font-size="11" fill="#475569">VERCEL V0 · BOLT · LOVABLE</text>
    <text x="775" y="503" text-anchor="middle" font-size="11" fill="#475569">MANUS · 通用 Agent 平台</text>
  </g>

  <g>
    <line x1="410" y1="300" x2="130" y2="300" stroke="#c4b5fd" stroke-width="1.5" stroke-dasharray="4 4"/>
    <rect x="20" y="270" width="200" height="60" rx="8" fill="#f5f3ff" stroke="#8b5cf6" stroke-width="1.5"/>
    <text x="120" y="295" text-anchor="middle" font-size="12" font-weight="700" fill="#6d28d9">社区贡献输入</text>
    <text x="120" y="314" text-anchor="middle" font-size="11" fill="#475569">PR · X · Discord</text>
  </g>

  <g>
    <line x1="550" y1="300" x2="830" y2="300" stroke="#a5b4fc" stroke-width="1.5" stroke-dasharray="4 4"/>
    <rect x="740" y="270" width="200" height="60" rx="8" fill="#eef2ff" stroke="#6366f1" stroke-width="1.5"/>
    <text x="840" y="295" text-anchor="middle" font-size="12" font-weight="700" fill="#4338ca">研究输出</text>
    <text x="840" y="314" text-anchor="middle" font-size="11" fill="#475569">透明度 · 红队 · Prompt 学习</text>
  </g>
</svg>
