<svg xmlns="http://www.w3.org/2000/svg" viewBox="0 0 960 520" font-family="'Segoe UI','PingFang SC','Microsoft YaHei',Arial,sans-serif">
  <defs><marker id="arrow" markerWidth="10" markerHeight="10" refX="9" refY="5" orient="auto" markerUnits="strokeWidth"><path d="M0,0 L0,10 L10,5 z" fill="#64748b"/></marker></defs>
  <rect width="960" height="520" fill="#f8fafc" rx="10"/>
  <text x="480" y="34" text-anchor="middle" font-size="18" font-weight="700" fill="#1e293b">系统分层：入口、内核、能力与持久化</text>
  <text x="480" y="54" text-anchor="middle" font-size="12" fill="#64748b">所有前端最终汇入同一个 AIAgent 运行时</text>
  <rect x="50" y="92" width="860" height="82" rx="10" fill="#fff" stroke="#cbd5e1"/>
  <text x="82" y="122" font-size="13" font-weight="700" fill="#1e293b">接入层</text>
  <rect x="160" y="110" width="120" height="38" rx="8" fill="#eff6ff" stroke="#3b82f6"/><text x="220" y="134" text-anchor="middle" font-size="12" fill="#1e40af">hermes CLI</text>
  <rect x="320" y="110" width="120" height="38" rx="8" fill="#eff6ff" stroke="#3b82f6"/><text x="380" y="134" text-anchor="middle" font-size="12" fill="#1e40af">TUI Gateway</text>
  <rect x="480" y="110" width="120" height="38" rx="8" fill="#eff6ff" stroke="#3b82f6"/><text x="540" y="134" text-anchor="middle" font-size="12" fill="#1e40af">ACP Server</text>
  <rect x="640" y="110" width="120" height="38" rx="8" fill="#eff6ff" stroke="#3b82f6"/><text x="700" y="134" text-anchor="middle" font-size="12" fill="#1e40af">Messaging</text>
  <rect x="50" y="218" width="860" height="92" rx="10" fill="#fff" stroke="#cbd5e1"/>
  <text x="82" y="252" font-size="13" font-weight="700" fill="#1e293b">运行时内核</text>
  <rect x="250" y="242" width="170" height="42" rx="8" fill="#eff6ff" stroke="#3b82f6"/><text x="335" y="268" text-anchor="middle" font-size="12" fill="#1e40af">AIAgent</text>
  <rect x="540" y="242" width="170" height="42" rx="8" fill="#ecfdf5" stroke="#10b981"/><text x="625" y="268" text-anchor="middle" font-size="12" fill="#047857">conversation_loop</text>
  <path d="M420 263 H540" stroke="#94a3b8" stroke-width="1.5" marker-end="url(#arrow)"/>
  <rect x="50" y="354" width="860" height="92" rx="10" fill="#fff" stroke="#cbd5e1"/>
  <text x="82" y="388" font-size="13" font-weight="700" fill="#1e293b">能力与状态</text>
  <rect x="170" y="378" width="130" height="42" rx="8" fill="#fffbeb" stroke="#f59e0b"/><text x="235" y="404" text-anchor="middle" font-size="12" fill="#92400e">Tool Registry</text>
  <rect x="342" y="378" width="130" height="42" rx="8" fill="#f5f3ff" stroke="#8b5cf6"/><text x="407" y="404" text-anchor="middle" font-size="12" fill="#5b21b6">SessionDB</text>
  <rect x="514" y="378" width="130" height="42" rx="8" fill="#ecfdf5" stroke="#10b981"/><text x="579" y="404" text-anchor="middle" font-size="12" fill="#047857">Context Engine</text>
  <rect x="686" y="378" width="130" height="42" rx="8" fill="#eff6ff" stroke="#3b82f6"/><text x="751" y="404" text-anchor="middle" font-size="12" fill="#1e40af">Transport</text>
  <path d="M480 174 V218" stroke="#94a3b8" stroke-width="1.5" marker-end="url(#arrow)"/>
  <path d="M480 310 V354" stroke="#94a3b8" stroke-width="1.5" marker-end="url(#arrow)"/>
</svg>
