<svg xmlns="http://www.w3.org/2000/svg" viewBox="0 0 960 520" font-family="'Inter','Segoe UI','PingFang SC','Microsoft YaHei',Arial,sans-serif">
  <defs>
    <radialGradient id="bg" cx="50%" cy="38%" r="80%">
      <stop offset="0%" stop-color="#11213f"/><stop offset="55%" stop-color="#0b1730"/><stop offset="100%" stop-color="#08111f"/>
    </radialGradient>
    <linearGradient id="panel" x1="0%" y1="0%" x2="0%" y2="100%"><stop offset="0%" stop-color="#13243f"/><stop offset="100%" stop-color="#0d1a31"/></linearGradient>
    <pattern id="grid" width="36" height="36" patternUnits="userSpaceOnUse"><path d="M 36 0 L 0 0 0 36" fill="none" stroke="#21385d" stroke-width="0.7"/></pattern>
    <filter id="shadow" x="-20%" y="-20%" width="140%" height="140%"><feDropShadow dx="0" dy="8" stdDeviation="10" flood-color="#020817" flood-opacity="0.36"/></filter>
  </defs>
  <rect width="960" height="520" rx="18" fill="url(#bg)"/>
  <rect width="960" height="520" rx="18" fill="url(#grid)" opacity="0.22"/>
  <rect x="18" y="18" width="924" height="484" rx="14" fill="none" stroke="#29476f" stroke-width="1" opacity="0.85"/>

  <text x="40" y="52" fill="#8fb3da" font-size="11" letter-spacing="3">MINIMAX-PDF / 15 DOC TYPES</text>
  <text x="40" y="90" fill="#f4fbff" font-size="24" font-weight="700" letter-spacing="1.2">15 Document Types · Token-Based Design</text>
  <text x="40" y="114" fill="#8aa4c8" font-size="12">每种文档类型预设封面模式、字体栈与色板，保证同类文档视觉一致</text>

  <!-- 5×3 grid of type tokens -->
  <g font-family="monospace" font-size="12">
    <!-- Row 1 -->
    <g filter="url(#shadow)">
      <rect x="40" y="148" width="168" height="96" rx="12" fill="url(#panel)" stroke="#7dd3fc" stroke-width="1.3"/>
      <rect x="40" y="148" width="168" height="3" fill="#7dd3fc"/>
    </g>
    <text x="58" y="176" fill="#7dd3fc" font-weight="700">report</text>
    <text x="58" y="196" fill="#8aa4c8" font-size="10">fullbleed cover</text>
    <text x="58" y="216" fill="#dbeafe" font-size="10">dark · dots · Playfair</text>
    <text x="58" y="232" fill="#5a7ca3" font-size="9">DOC-01</text>

    <g filter="url(#shadow)">
      <rect x="220" y="148" width="168" height="96" rx="12" fill="url(#panel)" stroke="#a78bfa" stroke-width="1.3"/>
      <rect x="220" y="148" width="168" height="3" fill="#a78bfa"/>
    </g>
    <text x="238" y="176" fill="#a78bfa" font-weight="700">proposal</text>
    <text x="238" y="196" fill="#8aa4c8" font-size="10">split panel</text>
    <text x="238" y="216" fill="#e5d4ff" font-size="10">panel + geom + Syne</text>
    <text x="238" y="232" fill="#5a7ca3" font-size="9">DOC-02</text>

    <g filter="url(#shadow)">
      <rect x="400" y="148" width="168" height="96" rx="12" fill="url(#panel)" stroke="#6ee7b7" stroke-width="1.3"/>
      <rect x="400" y="148" width="168" height="3" fill="#6ee7b7"/>
    </g>
    <text x="418" y="176" fill="#6ee7b7" font-weight="700">resume</text>
    <text x="418" y="196" fill="#8aa4c8" font-size="10">typographic</text>
    <text x="418" y="216" fill="#dcfce7" font-size="10">big drop-cap · DM Serif</text>
    <text x="418" y="232" fill="#5a7ca3" font-size="9">DOC-03</text>

    <g filter="url(#shadow)">
      <rect x="580" y="148" width="168" height="96" rx="12" fill="url(#panel)" stroke="#fbbf24" stroke-width="1.3"/>
      <rect x="580" y="148" width="168" height="3" fill="#fbbf24"/>
    </g>
    <text x="598" y="176" fill="#fbbf24" font-weight="700">portfolio</text>
    <text x="598" y="196" fill="#8aa4c8" font-size="10">atmospheric</text>
    <text x="598" y="216" fill="#fde7b5" font-size="10">glow · Fraunces</text>
    <text x="598" y="232" fill="#5a7ca3" font-size="9">DOC-04</text>

    <g filter="url(#shadow)">
      <rect x="760" y="148" width="162" height="96" rx="12" fill="url(#panel)" stroke="#7dd3fc" stroke-width="1.3"/>
      <rect x="760" y="148" width="162" height="3" fill="#7dd3fc"/>
    </g>
    <text x="778" y="176" fill="#7dd3fc" font-weight="700">academic</text>
    <text x="778" y="196" fill="#8aa4c8" font-size="10">typographic</text>
    <text x="778" y="216" fill="#dbeafe" font-size="10">classic serif</text>
    <text x="778" y="232" fill="#5a7ca3" font-size="9">DOC-05</text>

    <!-- Row 2 -->
    <g filter="url(#shadow)">
      <rect x="40" y="260" width="168" height="96" rx="12" fill="url(#panel)" stroke="#6ee7b7" stroke-width="1.3"/>
      <rect x="40" y="260" width="168" height="3" fill="#6ee7b7"/>
    </g>
    <text x="58" y="288" fill="#6ee7b7" font-weight="700">minimal</text>
    <text x="58" y="308" fill="#8aa4c8" font-size="10">minimal</text>
    <text x="58" y="328" fill="#dcfce7" font-size="10">8px accent bar</text>
    <text x="58" y="344" fill="#5a7ca3" font-size="9">DOC-06</text>

    <g filter="url(#shadow)">
      <rect x="220" y="260" width="168" height="96" rx="12" fill="url(#panel)" stroke="#6ee7b7" stroke-width="1.3"/>
      <rect x="220" y="260" width="168" height="3" fill="#6ee7b7"/>
    </g>
    <text x="238" y="288" fill="#6ee7b7" font-weight="700">terminal</text>
    <text x="238" y="308" fill="#8aa4c8" font-size="10">terminal</text>
    <text x="238" y="328" fill="#dcfce7" font-size="10">grid · mono · neon</text>
    <text x="238" y="344" fill="#5a7ca3" font-size="9">DOC-07</text>

    <g filter="url(#shadow)">
      <rect x="400" y="260" width="168" height="96" rx="12" fill="url(#panel)" stroke="#f9a8d4" stroke-width="1.3"/>
      <rect x="400" y="260" width="168" height="3" fill="#f9a8d4"/>
    </g>
    <text x="418" y="288" fill="#f9a8d4" font-weight="700">poster</text>
    <text x="418" y="308" fill="#8aa4c8" font-size="10">bold sidebar</text>
    <text x="418" y="328" fill="#fde7f3" font-size="10">huge title</text>
    <text x="418" y="344" fill="#5a7ca3" font-size="9">DOC-08</text>

    <g filter="url(#shadow)">
      <rect x="580" y="260" width="168" height="96" rx="12" fill="url(#panel)" stroke="#fbbf24" stroke-width="1.3"/>
      <rect x="580" y="260" width="168" height="3" fill="#fbbf24"/>
    </g>
    <text x="598" y="288" fill="#fbbf24" font-weight="700">newsletter</text>
    <text x="598" y="308" fill="#8aa4c8" font-size="10">masthead</text>
    <text x="598" y="328" fill="#fde7b5" font-size="10">editorial grid</text>
    <text x="598" y="344" fill="#5a7ca3" font-size="9">DOC-09</text>

    <g filter="url(#shadow)">
      <rect x="760" y="260" width="162" height="96" rx="12" fill="url(#panel)" stroke="#a78bfa" stroke-width="1.3"/>
      <rect x="760" y="260" width="162" height="3" fill="#a78bfa"/>
    </g>
    <text x="778" y="288" fill="#a78bfa" font-weight="700">invoice</text>
    <text x="778" y="308" fill="#8aa4c8" font-size="10">formal</text>
    <text x="778" y="328" fill="#e5d4ff" font-size="10">table-heavy</text>
    <text x="778" y="344" fill="#5a7ca3" font-size="9">DOC-10</text>

    <!-- Row 3 -->
    <g filter="url(#shadow)">
      <rect x="40" y="372" width="168" height="96" rx="12" fill="url(#panel)" stroke="#7dd3fc" stroke-width="1.3"/>
      <rect x="40" y="372" width="168" height="3" fill="#7dd3fc"/>
    </g>
    <text x="58" y="400" fill="#7dd3fc" font-weight="700">certificate</text>
    <text x="58" y="420" fill="#8aa4c8" font-size="10">classical</text>
    <text x="58" y="440" fill="#dbeafe" font-size="10">border · seal</text>
    <text x="58" y="456" fill="#5a7ca3" font-size="9">DOC-11</text>

    <g filter="url(#shadow)">
      <rect x="220" y="372" width="168" height="96" rx="12" fill="url(#panel)" stroke="#fbbf24" stroke-width="1.3"/>
      <rect x="220" y="372" width="168" height="3" fill="#fbbf24"/>
    </g>
    <text x="238" y="400" fill="#fbbf24" font-weight="700">menu</text>
    <text x="238" y="420" fill="#8aa4c8" font-size="10">editorial</text>
    <text x="238" y="440" fill="#fde7b5" font-size="10">two-column</text>
    <text x="238" y="456" fill="#5a7ca3" font-size="9">DOC-12</text>

    <g filter="url(#shadow)">
      <rect x="400" y="372" width="168" height="96" rx="12" fill="url(#panel)" stroke="#a78bfa" stroke-width="1.3"/>
      <rect x="400" y="372" width="168" height="3" fill="#a78bfa"/>
    </g>
    <text x="418" y="400" fill="#a78bfa" font-weight="700">book</text>
    <text x="418" y="420" fill="#8aa4c8" font-size="10">classic print</text>
    <text x="418" y="440" fill="#e5d4ff" font-size="10">chapter marker</text>
    <text x="418" y="456" fill="#5a7ca3" font-size="9">DOC-13</text>

    <g filter="url(#shadow)">
      <rect x="580" y="372" width="168" height="96" rx="12" fill="url(#panel)" stroke="#f9a8d4" stroke-width="1.3"/>
      <rect x="580" y="372" width="168" height="3" fill="#f9a8d4"/>
    </g>
    <text x="598" y="400" fill="#f9a8d4" font-weight="700">zine</text>
    <text x="598" y="420" fill="#8aa4c8" font-size="10">editorial</text>
    <text x="598" y="440" fill="#fde7f3" font-size="10">free layout</text>
    <text x="598" y="456" fill="#5a7ca3" font-size="9">DOC-14</text>

    <g filter="url(#shadow)">
      <rect x="760" y="372" width="162" height="96" rx="12" fill="url(#panel)" stroke="#6ee7b7" stroke-width="1.3"/>
      <rect x="760" y="372" width="162" height="3" fill="#6ee7b7"/>
    </g>
    <text x="778" y="400" fill="#6ee7b7" font-weight="700">whitepaper</text>
    <text x="778" y="420" fill="#8aa4c8" font-size="10">formal</text>
    <text x="778" y="440" fill="#dcfce7" font-size="10">structured</text>
    <text x="778" y="456" fill="#5a7ca3" font-size="9">DOC-15</text>
  </g>

  <text x="480" y="502" text-anchor="middle" fill="#8aa4c8" font-size="11" font-family="monospace">each type → cover-mode + font-stack + color-palette preset, so palette.py produces design-grade PDFs</text>
</svg>
