<svg xmlns="http://www.w3.org/2000/svg" viewBox="0 0 900 520" font-family="'Inter','Segoe UI','PingFang SC','Microsoft YaHei',Arial,sans-serif">
  <defs>
    <radialGradient id="bg" cx="50%" cy="42%" r="75%"><stop offset="0%" stop-color="#11213f"/><stop offset="55%" stop-color="#0b1730"/><stop offset="100%" stop-color="#08111f"/></radialGradient>
    <pattern id="grid" width="36" height="36" patternUnits="userSpaceOnUse"><path d="M 36 0 L 0 0 0 36" fill="none" stroke="#21385d" stroke-width="0.7"/></pattern>
    <filter id="glow"><feGaussianBlur stdDeviation="2.1" result="b"/><feMerge><feMergeNode in="b"/><feMergeNode in="SourceGraphic"/></feMerge></filter>
  </defs>
  <rect width="900" height="520" fill="url(#bg)" rx="14"/>
  <rect width="900" height="520" fill="url(#grid)" rx="14" opacity="0.22"/>
  <text x="450" y="42" text-anchor="middle" fill="#f4fbff" font-size="20" font-weight="600" letter-spacing="2">FUTURE TRENDS · FIVE EVOLUTION TRACKS</text>

  <g filter="url(#glow)">
    <circle cx="450" cy="275" r="78" fill="#0c162c" stroke="#7dd3fc" stroke-width="2"/>
    <circle cx="450" cy="275" r="65" fill="none" stroke="#7dd3fc" stroke-width="0.5" opacity="0.5"/>
  </g>
  <text x="450" y="268" text-anchor="middle" fill="#7dd3fc" font-size="14" font-weight="bold">AGENT</text>
  <text x="450" y="287" text-anchor="middle" fill="#8aa4c8" font-size="11">发展趋势</text>

  <g filter="url(#glow)" font-size="11" font-family="monospace">
    <rect x="40" y="85" width="240" height="120" rx="10" fill="#101b33" stroke="#7dd3fc" stroke-width="1.5"/>
    <text x="160" y="110" text-anchor="middle" fill="#7dd3fc" font-size="13" font-weight="bold">① MODE FUSION</text>
    <text x="160" y="128" text-anchor="middle" fill="#8aa4c8" font-size="10">模式融合</text>
    <text x="60" y="152" fill="#dbeafe">› adaptive_switch()</text>
    <text x="60" y="170" fill="#dbeafe">› hybrid_arch()</text>
    <text x="60" y="188" fill="#dbeafe">› dynamic_compose()</text>

    <rect x="620" y="85" width="240" height="120" rx="10" fill="#102921" stroke="#6ee7b7" stroke-width="1.5"/>
    <text x="740" y="110" text-anchor="middle" fill="#6ee7b7" font-size="13" font-weight="bold">② CAPABILITY+</text>
    <text x="740" y="128" text-anchor="middle" fill="#9ad0b7" font-size="10">能力增强</text>
    <text x="640" y="152" fill="#dcfce7">› multi_modal_perc()</text>
    <text x="640" y="170" fill="#dcfce7">› cross_domain_xfer()</text>
    <text x="640" y="188" fill="#dcfce7">› meta_learning()</text>

    <rect x="40" y="345" width="240" height="120" rx="10" fill="#281629" stroke="#f472b6" stroke-width="1.5"/>
    <text x="160" y="370" text-anchor="middle" fill="#f9a8d4" font-size="13" font-weight="bold">③ COLLABORATION</text>
    <text x="160" y="388" text-anchor="middle" fill="#d6a6c2" font-size="10">协作进化</text>
    <text x="60" y="412" fill="#fde7f3">› massive_scale()</text>
    <text x="60" y="430" fill="#fde7f3">› decentralized()</text>
    <text x="60" y="448" fill="#fde7f3">› swarm_intelligence</text>

    <rect x="620" y="345" width="240" height="120" rx="10" fill="#1d1832" stroke="#8338ec" stroke-width="1.5"/>
    <text x="740" y="370" text-anchor="middle" fill="#a78bfa" font-size="13" font-weight="bold">④ SAFETY</text>
    <text x="740" y="388" text-anchor="middle" fill="#9d7ab3" font-size="10">安全可控</text>
    <text x="640" y="412" fill="#e5d4ff">› explainable_ai()</text>
    <text x="640" y="430" fill="#e5d4ff">› alignment_guard()</text>
    <text x="640" y="448" fill="#e5d4ff">› safety_filter()</text>

    <rect x="330" y="410" width="240" height="90" rx="10" fill="#2d2410" stroke="#fbbf24" stroke-width="1.5"/>
    <text x="450" y="435" text-anchor="middle" fill="#fbbf24" font-size="13" font-weight="bold">⑤ APPLICATION REACH</text>
    <text x="450" y="453" text-anchor="middle" fill="#c49a3f" font-size="10">应用拓展</text>
    <text x="450" y="475" text-anchor="middle" fill="#ffdc70">vertical · edge · realtime</text>
  </g>

  <g stroke-width="1" stroke-dasharray="4 3" opacity="0.7">
    <line x1="280" y1="145" x2="395" y2="235" stroke="#7dd3fc"/>
    <line x1="620" y1="145" x2="505" y2="235" stroke="#6ee7b7"/>
    <line x1="280" y1="405" x2="395" y2="315" stroke="#f472b6"/>
    <line x1="620" y1="405" x2="505" y2="315" stroke="#8338ec"/>
    <line x1="450" y1="353" x2="450" y2="410" stroke="#fbbf24"/>
  </g>
</svg>
